<mxfile host="app.diagrams.net" modified="2024-06-15T23:37:53.757Z" agent="Mozilla/5.0 (Windows NT 10.0; Win64; x64) AppleWebKit/537.36 (KHTML, like Gecko) Chrome/123.0.0.0 Safari/537.36 OPR/109.0.0.0" etag="9hcL5M_0Il7SS94KzaQV" version="24.5.4" type="github">
  <diagram name="Página-1" id="ng0IZWedt5B4W6SbE388">
    <mxGraphModel dx="1020" dy="1260" grid="1" gridSize="10" guides="1" tooltips="1" connect="1" arrows="1" fold="1" page="1" pageScale="1" pageWidth="827" pageHeight="1169" math="0" shadow="0">
      <root>
        <mxCell id="0" />
        <mxCell id="1" parent="0" />
        <mxCell id="j8T5LUoiK3F1KZbFksjJ-11" value="CLIENTE" style="rounded=0;whiteSpace=wrap;html=1;" parent="1" vertex="1">
          <mxGeometry x="190" y="30" width="100" height="50" as="geometry" />
        </mxCell>
        <mxCell id="j8T5LUoiK3F1KZbFksjJ-13" value="" style="triangle;whiteSpace=wrap;html=1;rotation=-90;" parent="1" vertex="1">
          <mxGeometry x="70" y="100" width="32.5" height="52.5" as="geometry" />
        </mxCell>
        <mxCell id="j8T5LUoiK3F1KZbFksjJ-16" value="EMPRESA/PJ" style="rounded=0;whiteSpace=wrap;html=1;" parent="1" vertex="1">
          <mxGeometry x="-40" y="180" width="100" height="50" as="geometry" />
        </mxCell>
        <mxCell id="j8T5LUoiK3F1KZbFksjJ-17" value="PESSOA FÍSICA" style="rounded=0;whiteSpace=wrap;html=1;" parent="1" vertex="1">
          <mxGeometry x="90" y="180" width="100" height="50" as="geometry" />
        </mxCell>
        <mxCell id="j8T5LUoiK3F1KZbFksjJ-18" value="" style="endArrow=none;html=1;rounded=0;entryX=0.262;entryY=0.133;entryDx=0;entryDy=0;entryPerimeter=0;" parent="1" source="j8T5LUoiK3F1KZbFksjJ-16" target="j8T5LUoiK3F1KZbFksjJ-13" edge="1">
          <mxGeometry width="50" height="50" relative="1" as="geometry">
            <mxPoint x="30" y="229.28932188134524" as="sourcePoint" />
            <mxPoint x="30" y="179.28932188134524" as="targetPoint" />
            <Array as="points">
              <mxPoint x="60" y="140" />
            </Array>
          </mxGeometry>
        </mxCell>
        <mxCell id="j8T5LUoiK3F1KZbFksjJ-19" value="" style="endArrow=none;html=1;rounded=0;entryX=0.015;entryY=1.01;entryDx=0;entryDy=0;exitX=0.5;exitY=0;exitDx=0;exitDy=0;entryPerimeter=0;" parent="1" source="j8T5LUoiK3F1KZbFksjJ-17" target="j8T5LUoiK3F1KZbFksjJ-13" edge="1">
          <mxGeometry width="50" height="50" relative="1" as="geometry">
            <mxPoint x="120" y="250" as="sourcePoint" />
            <mxPoint x="170" y="174" as="targetPoint" />
          </mxGeometry>
        </mxCell>
        <mxCell id="j8T5LUoiK3F1KZbFksjJ-20" value="" style="endArrow=none;html=1;rounded=0;entryX=0;entryY=1;entryDx=0;entryDy=0;" parent="1" source="j8T5LUoiK3F1KZbFksjJ-13" target="j8T5LUoiK3F1KZbFksjJ-11" edge="1">
          <mxGeometry width="50" height="50" relative="1" as="geometry">
            <mxPoint x="110" y="160" as="sourcePoint" />
            <mxPoint x="160" y="110" as="targetPoint" />
            <Array as="points">
              <mxPoint x="86" y="70" />
              <mxPoint x="190" y="70" />
            </Array>
          </mxGeometry>
        </mxCell>
        <mxCell id="j8T5LUoiK3F1KZbFksjJ-21" value="SELECAO" style="rhombus;whiteSpace=wrap;html=1;" parent="1" vertex="1">
          <mxGeometry x="220" y="180" width="90" height="50" as="geometry" />
        </mxCell>
        <mxCell id="j8T5LUoiK3F1KZbFksjJ-22" value="" style="endArrow=none;html=1;rounded=0;entryX=0.75;entryY=1;entryDx=0;entryDy=0;" parent="1" source="j8T5LUoiK3F1KZbFksjJ-21" target="j8T5LUoiK3F1KZbFksjJ-11" edge="1">
          <mxGeometry width="50" height="50" relative="1" as="geometry">
            <mxPoint x="260" y="170" as="sourcePoint" />
            <mxPoint x="310" y="120" as="targetPoint" />
            <Array as="points">
              <mxPoint x="265" y="110" />
            </Array>
          </mxGeometry>
        </mxCell>
        <mxCell id="j8T5LUoiK3F1KZbFksjJ-24" value="PEDIDOS" style="rounded=0;whiteSpace=wrap;html=1;" parent="1" vertex="1">
          <mxGeometry x="350" y="180" width="100" height="50" as="geometry" />
        </mxCell>
        <mxCell id="j8T5LUoiK3F1KZbFksjJ-25" value="" style="endArrow=none;html=1;rounded=0;exitX=1;exitY=0.5;exitDx=0;exitDy=0;" parent="1" source="j8T5LUoiK3F1KZbFksjJ-21" target="j8T5LUoiK3F1KZbFksjJ-24" edge="1">
          <mxGeometry width="50" height="50" relative="1" as="geometry">
            <mxPoint x="270" y="210" as="sourcePoint" />
            <mxPoint x="320" y="160" as="targetPoint" />
          </mxGeometry>
        </mxCell>
        <mxCell id="j8T5LUoiK3F1KZbFksjJ-26" value="VERIFICACAO" style="rhombus;whiteSpace=wrap;html=1;" parent="1" vertex="1">
          <mxGeometry x="345" y="260" width="110" height="50" as="geometry" />
        </mxCell>
        <mxCell id="j8T5LUoiK3F1KZbFksjJ-27" value="" style="endArrow=none;html=1;rounded=0;exitX=0.5;exitY=0;exitDx=0;exitDy=0;" parent="1" source="j8T5LUoiK3F1KZbFksjJ-26" target="j8T5LUoiK3F1KZbFksjJ-24" edge="1">
          <mxGeometry width="50" height="50" relative="1" as="geometry">
            <mxPoint x="380" y="280" as="sourcePoint" />
            <mxPoint x="430" y="230" as="targetPoint" />
          </mxGeometry>
        </mxCell>
        <mxCell id="j8T5LUoiK3F1KZbFksjJ-28" value="&lt;font style=&quot;font-size: 9px;&quot;&gt;ADM/FUNCIONARIOS&lt;/font&gt;" style="rounded=0;whiteSpace=wrap;html=1;" parent="1" vertex="1">
          <mxGeometry x="350" y="340" width="100" height="50" as="geometry" />
        </mxCell>
        <mxCell id="j8T5LUoiK3F1KZbFksjJ-29" value="" style="endArrow=none;html=1;rounded=0;" parent="1" source="j8T5LUoiK3F1KZbFksjJ-28" target="j8T5LUoiK3F1KZbFksjJ-26" edge="1">
          <mxGeometry width="50" height="50" relative="1" as="geometry">
            <mxPoint x="370" y="350" as="sourcePoint" />
            <mxPoint x="420" y="300" as="targetPoint" />
          </mxGeometry>
        </mxCell>
        <mxCell id="j8T5LUoiK3F1KZbFksjJ-31" value="ROTA" style="rhombus;whiteSpace=wrap;html=1;" parent="1" vertex="1">
          <mxGeometry x="320" y="-10" width="90" height="50" as="geometry" />
        </mxCell>
        <mxCell id="j8T5LUoiK3F1KZbFksjJ-32" value="ROTA_EST" style="rhombus;whiteSpace=wrap;html=1;" parent="1" vertex="1">
          <mxGeometry x="320" y="80" width="90" height="50" as="geometry" />
        </mxCell>
        <mxCell id="j8T5LUoiK3F1KZbFksjJ-33" value="" style="endArrow=none;html=1;rounded=0;exitX=1;exitY=0;exitDx=0;exitDy=0;entryX=0;entryY=0.5;entryDx=0;entryDy=0;" parent="1" source="j8T5LUoiK3F1KZbFksjJ-11" target="j8T5LUoiK3F1KZbFksjJ-31" edge="1">
          <mxGeometry width="50" height="50" relative="1" as="geometry">
            <mxPoint x="280" y="60" as="sourcePoint" />
            <mxPoint x="330" y="10" as="targetPoint" />
            <Array as="points">
              <mxPoint x="290" y="15" />
            </Array>
          </mxGeometry>
        </mxCell>
        <mxCell id="j8T5LUoiK3F1KZbFksjJ-34" value="" style="endArrow=none;html=1;rounded=0;exitX=0;exitY=0.5;exitDx=0;exitDy=0;entryX=1;entryY=1;entryDx=0;entryDy=0;" parent="1" source="j8T5LUoiK3F1KZbFksjJ-32" target="j8T5LUoiK3F1KZbFksjJ-11" edge="1">
          <mxGeometry width="50" height="50" relative="1" as="geometry">
            <mxPoint x="310" y="150" as="sourcePoint" />
            <mxPoint x="360" y="100" as="targetPoint" />
            <Array as="points">
              <mxPoint x="290" y="105" />
            </Array>
          </mxGeometry>
        </mxCell>
        <mxCell id="j8T5LUoiK3F1KZbFksjJ-36" value="CIDADE" style="rounded=0;whiteSpace=wrap;html=1;" parent="1" vertex="1">
          <mxGeometry x="440" y="-20" width="100" height="50" as="geometry" />
        </mxCell>
        <mxCell id="j8T5LUoiK3F1KZbFksjJ-37" value="ESTADO" style="rounded=0;whiteSpace=wrap;html=1;" parent="1" vertex="1">
          <mxGeometry x="440" y="80" width="100" height="50" as="geometry" />
        </mxCell>
        <mxCell id="j8T5LUoiK3F1KZbFksjJ-38" value="" style="endArrow=none;html=1;rounded=0;entryX=-0.003;entryY=0.683;entryDx=0;entryDy=0;entryPerimeter=0;" parent="1" source="j8T5LUoiK3F1KZbFksjJ-31" edge="1">
          <mxGeometry width="50" height="50" relative="1" as="geometry">
            <mxPoint x="410" y="-19" as="sourcePoint" />
            <mxPoint x="439.6999999999998" y="-19.850000000000136" as="targetPoint" />
            <Array as="points">
              <mxPoint x="365" y="-20" />
            </Array>
          </mxGeometry>
        </mxCell>
        <mxCell id="j8T5LUoiK3F1KZbFksjJ-39" value="" style="endArrow=none;html=1;rounded=0;" parent="1" source="j8T5LUoiK3F1KZbFksjJ-32" edge="1">
          <mxGeometry width="50" height="50" relative="1" as="geometry">
            <mxPoint x="390" y="120" as="sourcePoint" />
            <mxPoint x="440" y="70" as="targetPoint" />
            <Array as="points">
              <mxPoint x="365" y="70" />
            </Array>
          </mxGeometry>
        </mxCell>
        <mxCell id="j8T5LUoiK3F1KZbFksjJ-40" value="" style="endArrow=none;html=1;rounded=0;exitX=0;exitY=0.25;exitDx=0;exitDy=0;" parent="1" source="j8T5LUoiK3F1KZbFksjJ-37" edge="1">
          <mxGeometry width="50" height="50" relative="1" as="geometry">
            <mxPoint x="410" y="120" as="sourcePoint" />
            <mxPoint x="440" y="70" as="targetPoint" />
          </mxGeometry>
        </mxCell>
        <mxCell id="j8T5LUoiK3F1KZbFksjJ-41" value="OPCOES" style="rhombus;whiteSpace=wrap;html=1;" parent="1" vertex="1">
          <mxGeometry x="480" y="180" width="90" height="50" as="geometry" />
        </mxCell>
        <mxCell id="j8T5LUoiK3F1KZbFksjJ-42" value="" style="endArrow=none;html=1;rounded=0;entryX=0;entryY=0.5;entryDx=0;entryDy=0;" parent="1" source="j8T5LUoiK3F1KZbFksjJ-24" target="j8T5LUoiK3F1KZbFksjJ-41" edge="1">
          <mxGeometry width="50" height="50" relative="1" as="geometry">
            <mxPoint x="470" y="240" as="sourcePoint" />
            <mxPoint x="520" y="190" as="targetPoint" />
          </mxGeometry>
        </mxCell>
        <mxCell id="j8T5LUoiK3F1KZbFksjJ-43" value="PECAS" style="rounded=0;whiteSpace=wrap;html=1;" parent="1" vertex="1">
          <mxGeometry x="600" y="180" width="100" height="50" as="geometry" />
        </mxCell>
        <mxCell id="j8T5LUoiK3F1KZbFksjJ-45" value="" style="endArrow=none;html=1;rounded=0;entryX=0;entryY=0.5;entryDx=0;entryDy=0;exitX=1;exitY=0.5;exitDx=0;exitDy=0;" parent="1" source="j8T5LUoiK3F1KZbFksjJ-41" target="j8T5LUoiK3F1KZbFksjJ-43" edge="1">
          <mxGeometry width="50" height="50" relative="1" as="geometry">
            <mxPoint x="540" y="220" as="sourcePoint" />
            <mxPoint x="590" y="170" as="targetPoint" />
          </mxGeometry>
        </mxCell>
        <mxCell id="j8T5LUoiK3F1KZbFksjJ-46" value="DESC" style="rhombus;whiteSpace=wrap;html=1;" parent="1" vertex="1">
          <mxGeometry x="720" y="102.5" width="90" height="50" as="geometry" />
        </mxCell>
        <mxCell id="j8T5LUoiK3F1KZbFksjJ-47" value="DESC" style="rhombus;whiteSpace=wrap;html=1;" parent="1" vertex="1">
          <mxGeometry x="720" y="180" width="90" height="50" as="geometry" />
        </mxCell>
        <mxCell id="j8T5LUoiK3F1KZbFksjJ-48" value="DESC" style="rhombus;whiteSpace=wrap;html=1;" parent="1" vertex="1">
          <mxGeometry x="720" y="255" width="90" height="50" as="geometry" />
        </mxCell>
        <mxCell id="j8T5LUoiK3F1KZbFksjJ-49" value="" style="endArrow=none;html=1;rounded=0;" parent="1" edge="1">
          <mxGeometry width="50" height="50" relative="1" as="geometry">
            <mxPoint x="680" y="178" as="sourcePoint" />
            <mxPoint x="680" y="130" as="targetPoint" />
            <Array as="points" />
          </mxGeometry>
        </mxCell>
        <mxCell id="j8T5LUoiK3F1KZbFksjJ-50" value="" style="endArrow=none;html=1;rounded=0;entryX=0;entryY=0.5;entryDx=0;entryDy=0;" parent="1" target="j8T5LUoiK3F1KZbFksjJ-46" edge="1">
          <mxGeometry width="50" height="50" relative="1" as="geometry">
            <mxPoint x="680" y="130" as="sourcePoint" />
            <mxPoint x="700" y="102.5" as="targetPoint" />
            <Array as="points">
              <mxPoint x="680" y="128" />
            </Array>
          </mxGeometry>
        </mxCell>
        <mxCell id="j8T5LUoiK3F1KZbFksjJ-51" value="" style="endArrow=none;html=1;rounded=0;entryX=0;entryY=0.5;entryDx=0;entryDy=0;exitX=1;exitY=0.5;exitDx=0;exitDy=0;" parent="1" source="j8T5LUoiK3F1KZbFksjJ-43" target="j8T5LUoiK3F1KZbFksjJ-47" edge="1">
          <mxGeometry width="50" height="50" relative="1" as="geometry">
            <mxPoint x="680" y="230" as="sourcePoint" />
            <mxPoint x="730" y="180" as="targetPoint" />
          </mxGeometry>
        </mxCell>
        <mxCell id="j8T5LUoiK3F1KZbFksjJ-60" value="" style="endArrow=none;html=1;rounded=0;entryX=0;entryY=0.5;entryDx=0;entryDy=0;" parent="1" edge="1">
          <mxGeometry width="50" height="50" relative="1" as="geometry">
            <mxPoint x="680" y="279.83" as="sourcePoint" />
            <mxPoint x="720" y="279.83" as="targetPoint" />
          </mxGeometry>
        </mxCell>
        <mxCell id="j8T5LUoiK3F1KZbFksjJ-62" value="" style="endArrow=none;html=1;rounded=0;" parent="1" edge="1">
          <mxGeometry width="50" height="50" relative="1" as="geometry">
            <mxPoint x="680" y="270" as="sourcePoint" />
            <mxPoint x="680" y="230" as="targetPoint" />
          </mxGeometry>
        </mxCell>
        <mxCell id="j8T5LUoiK3F1KZbFksjJ-63" value="" style="endArrow=none;html=1;rounded=0;" parent="1" edge="1">
          <mxGeometry width="50" height="50" relative="1" as="geometry">
            <mxPoint x="680" y="280" as="sourcePoint" />
            <mxPoint x="680" y="270" as="targetPoint" />
            <Array as="points">
              <mxPoint x="680" y="280" />
            </Array>
          </mxGeometry>
        </mxCell>
        <mxCell id="j8T5LUoiK3F1KZbFksjJ-64" value="VOLTS" style="rounded=0;whiteSpace=wrap;html=1;" parent="1" vertex="1">
          <mxGeometry x="840" y="100" width="100" height="50" as="geometry" />
        </mxCell>
        <mxCell id="j8T5LUoiK3F1KZbFksjJ-65" value="AUTOMOVEL" style="rounded=0;whiteSpace=wrap;html=1;" parent="1" vertex="1">
          <mxGeometry x="840" y="180" width="100" height="50" as="geometry" />
        </mxCell>
        <mxCell id="j8T5LUoiK3F1KZbFksjJ-66" value="FABRICANTE" style="rounded=0;whiteSpace=wrap;html=1;" parent="1" vertex="1">
          <mxGeometry x="840" y="260" width="100" height="50" as="geometry" />
        </mxCell>
        <mxCell id="j8T5LUoiK3F1KZbFksjJ-67" value="" style="endArrow=none;html=1;rounded=0;exitX=0.996;exitY=0.46;exitDx=0;exitDy=0;exitPerimeter=0;" parent="1" edge="1">
          <mxGeometry width="50" height="50" relative="1" as="geometry">
            <mxPoint x="809.6399999999999" y="280" as="sourcePoint" />
            <mxPoint x="840" y="280" as="targetPoint" />
          </mxGeometry>
        </mxCell>
        <mxCell id="j8T5LUoiK3F1KZbFksjJ-68" value="" style="endArrow=none;html=1;rounded=0;exitX=0.996;exitY=0.46;exitDx=0;exitDy=0;exitPerimeter=0;" parent="1" edge="1">
          <mxGeometry width="50" height="50" relative="1" as="geometry">
            <mxPoint x="809.6399999999999" y="204.82999999999998" as="sourcePoint" />
            <mxPoint x="840" y="204.82999999999998" as="targetPoint" />
          </mxGeometry>
        </mxCell>
        <mxCell id="j8T5LUoiK3F1KZbFksjJ-69" value="" style="endArrow=none;html=1;rounded=0;exitX=0.996;exitY=0.46;exitDx=0;exitDy=0;exitPerimeter=0;" parent="1" edge="1">
          <mxGeometry width="50" height="50" relative="1" as="geometry">
            <mxPoint x="809.6399999999999" y="127.33000000000001" as="sourcePoint" />
            <mxPoint x="840" y="127.33000000000001" as="targetPoint" />
          </mxGeometry>
        </mxCell>
        <mxCell id="j8T5LUoiK3F1KZbFksjJ-74" value="&lt;p style=&quot;line-height: 0%;&quot;&gt;&lt;font size=&quot;1&quot; color=&quot;#ffffff&quot;&gt;&lt;span style=&quot;background-color: rgb(0, 0, 0); font-size: 5px;&quot;&gt;idcliente&lt;/span&gt;&lt;/font&gt;&lt;/p&gt;" style="ellipse;whiteSpace=wrap;html=1;aspect=fixed;fillColor=#000000;strokeColor=#666666;gradientColor=#030303;strokeWidth=0;" parent="1" vertex="1">
          <mxGeometry x="155" width="20" height="20" as="geometry" />
        </mxCell>
        <mxCell id="j8T5LUoiK3F1KZbFksjJ-75" value="cpf" style="ellipse;whiteSpace=wrap;html=1;aspect=fixed;" parent="1" vertex="1">
          <mxGeometry x="175" y="240" width="20" height="20" as="geometry" />
        </mxCell>
        <mxCell id="j8T5LUoiK3F1KZbFksjJ-76" value="" style="endArrow=none;html=1;rounded=0;" parent="1" edge="1">
          <mxGeometry width="50" height="50" relative="1" as="geometry">
            <mxPoint x="185.0892821564762" y="240.00039847467633" as="sourcePoint" />
            <mxPoint x="185" y="230" as="targetPoint" />
          </mxGeometry>
        </mxCell>
        <mxCell id="j8T5LUoiK3F1KZbFksjJ-78" value="" style="endArrow=none;html=1;rounded=0;entryX=0.103;entryY=0.011;entryDx=0;entryDy=0;entryPerimeter=0;" parent="1" edge="1">
          <mxGeometry width="50" height="50" relative="1" as="geometry">
            <mxPoint x="175" y="9.37" as="sourcePoint" />
            <mxPoint x="200.30000000000018" y="29.999999999999954" as="targetPoint" />
            <Array as="points">
              <mxPoint x="200" y="9.45" />
            </Array>
          </mxGeometry>
        </mxCell>
        <mxCell id="j8T5LUoiK3F1KZbFksjJ-79" value="" style="endArrow=none;html=1;rounded=0;" parent="1" edge="1">
          <mxGeometry width="50" height="50" relative="1" as="geometry">
            <mxPoint x="200" y="10" as="sourcePoint" />
            <mxPoint x="200" y="-10" as="targetPoint" />
          </mxGeometry>
        </mxCell>
        <mxCell id="j8T5LUoiK3F1KZbFksjJ-80" value="&lt;p style=&quot;text-align: left; line-height: 0%;&quot;&gt;&lt;span style=&quot;background-color: initial;&quot;&gt;&lt;font style=&quot;font-size: 3px;&quot;&gt;tipo_usuario&lt;/font&gt;&lt;/span&gt;&lt;br&gt;&lt;/p&gt;" style="ellipse;whiteSpace=wrap;html=1;aspect=fixed;strokeWidth=1;align=center;strokeColor=default;gradientColor=none;perimeterSpacing=0;" parent="1" vertex="1">
          <mxGeometry x="155" y="-20" width="18" height="18" as="geometry" />
        </mxCell>
        <mxCell id="j8T5LUoiK3F1KZbFksjJ-81" value="&lt;font style=&quot;font-size: 6px;&quot;&gt;email&lt;/font&gt;" style="ellipse;whiteSpace=wrap;html=1;aspect=fixed;" parent="1" vertex="1">
          <mxGeometry x="154" y="-87" width="20" height="20" as="geometry" />
        </mxCell>
        <mxCell id="j8T5LUoiK3F1KZbFksjJ-82" value="&lt;font style=&quot;font-size: 6px;&quot;&gt;nome&lt;/font&gt;" style="ellipse;whiteSpace=wrap;html=1;aspect=fixed;" parent="1" vertex="1">
          <mxGeometry x="154" y="-42" width="20" height="20" as="geometry" />
        </mxCell>
        <mxCell id="j8T5LUoiK3F1KZbFksjJ-83" value="&lt;font style=&quot;font-size: 6px;&quot;&gt;senha&lt;/font&gt;" style="ellipse;whiteSpace=wrap;html=1;aspect=fixed;" parent="1" vertex="1">
          <mxGeometry x="154" y="-64" width="20" height="20" as="geometry" />
        </mxCell>
        <mxCell id="j8T5LUoiK3F1KZbFksjJ-84" value="&lt;font style=&quot;font-size: 6px;&quot;&gt;fone&lt;/font&gt;" style="ellipse;whiteSpace=wrap;html=1;aspect=fixed;" parent="1" vertex="1">
          <mxGeometry x="154" y="-132" width="20" height="20" as="geometry" />
        </mxCell>
        <mxCell id="j8T5LUoiK3F1KZbFksjJ-85" value="&lt;font style=&quot;font-size: 6px;&quot;&gt;cidade&lt;/font&gt;" style="ellipse;whiteSpace=wrap;html=1;aspect=fixed;" parent="1" vertex="1">
          <mxGeometry x="155" y="-178" width="20" height="20" as="geometry" />
        </mxCell>
        <mxCell id="j8T5LUoiK3F1KZbFksjJ-86" value="&lt;font style=&quot;font-size: 5px;&quot;&gt;data_nasc&lt;/font&gt;" style="ellipse;whiteSpace=wrap;html=1;aspect=fixed;" parent="1" vertex="1">
          <mxGeometry x="154" y="-109" width="20" height="20" as="geometry" />
        </mxCell>
        <mxCell id="j8T5LUoiK3F1KZbFksjJ-87" value="&lt;font style=&quot;font-size: 6px;&quot;&gt;cliente&lt;/font&gt;" style="ellipse;whiteSpace=wrap;html=1;aspect=fixed;" parent="1" vertex="1">
          <mxGeometry x="76.25" y="-43" width="20" height="20" as="geometry" />
        </mxCell>
        <mxCell id="j8T5LUoiK3F1KZbFksjJ-88" value="&lt;font style=&quot;font-size: 4px;&quot;&gt;endereco&lt;/font&gt;" style="ellipse;whiteSpace=wrap;html=1;aspect=fixed;" parent="1" vertex="1">
          <mxGeometry x="155" y="-155" width="20" height="20" as="geometry" />
        </mxCell>
        <mxCell id="j8T5LUoiK3F1KZbFksjJ-89" value="&lt;font style=&quot;font-size: 6px;&quot;&gt;adm&lt;/font&gt;" style="ellipse;whiteSpace=wrap;html=1;aspect=fixed;" parent="1" vertex="1">
          <mxGeometry x="76.25" y="-21" width="20" height="20" as="geometry" />
        </mxCell>
        <mxCell id="j8T5LUoiK3F1KZbFksjJ-90" value="&lt;font style=&quot;font-size: 4px;&quot;&gt;empresa&lt;/font&gt;" style="ellipse;whiteSpace=wrap;html=1;aspect=fixed;" parent="1" vertex="1">
          <mxGeometry x="77.25" y="1" width="20" height="20" as="geometry" />
        </mxCell>
        <mxCell id="j8T5LUoiK3F1KZbFksjJ-91" value="&lt;font style=&quot;font-size: 6px;&quot;&gt;estado&lt;/font&gt;" style="ellipse;whiteSpace=wrap;html=1;aspect=fixed;" parent="1" vertex="1">
          <mxGeometry x="155" y="-202" width="20" height="20" as="geometry" />
        </mxCell>
        <mxCell id="j8T5LUoiK3F1KZbFksjJ-93" value="" style="endArrow=none;html=1;rounded=0;" parent="1" edge="1">
          <mxGeometry width="50" height="50" relative="1" as="geometry">
            <mxPoint x="200" y="-10" as="sourcePoint" />
            <mxPoint x="200" y="-30" as="targetPoint" />
          </mxGeometry>
        </mxCell>
        <mxCell id="j8T5LUoiK3F1KZbFksjJ-94" value="" style="endArrow=none;html=1;rounded=0;" parent="1" edge="1">
          <mxGeometry width="50" height="50" relative="1" as="geometry">
            <mxPoint x="200" y="-30" as="sourcePoint" />
            <mxPoint x="200" y="-50" as="targetPoint" />
          </mxGeometry>
        </mxCell>
        <mxCell id="j8T5LUoiK3F1KZbFksjJ-98" value="" style="endArrow=none;html=1;rounded=0;" parent="1" source="j8T5LUoiK3F1KZbFksjJ-87" edge="1">
          <mxGeometry width="50" height="50" relative="1" as="geometry">
            <mxPoint x="110" y="-33.16" as="sourcePoint" />
            <mxPoint x="120" y="-33.16" as="targetPoint" />
            <Array as="points">
              <mxPoint x="120" y="-33.16" />
            </Array>
          </mxGeometry>
        </mxCell>
        <mxCell id="j8T5LUoiK3F1KZbFksjJ-99" value="" style="endArrow=none;html=1;rounded=0;" parent="1" edge="1">
          <mxGeometry width="50" height="50" relative="1" as="geometry">
            <mxPoint x="96.25" y="-9.84" as="sourcePoint" />
            <mxPoint x="120.25" y="-9.999999999999996" as="targetPoint" />
            <Array as="points">
              <mxPoint x="150" y="-10" />
            </Array>
          </mxGeometry>
        </mxCell>
        <mxCell id="j8T5LUoiK3F1KZbFksjJ-100" value="" style="endArrow=none;html=1;rounded=0;" parent="1" edge="1">
          <mxGeometry width="50" height="50" relative="1" as="geometry">
            <mxPoint x="97" y="11" as="sourcePoint" />
            <mxPoint x="117.25" y="10.840000000000003" as="targetPoint" />
            <Array as="points">
              <mxPoint x="117.25" y="10.840000000000003" />
            </Array>
          </mxGeometry>
        </mxCell>
        <mxCell id="j8T5LUoiK3F1KZbFksjJ-103" value="" style="endArrow=none;html=1;rounded=0;" parent="1" edge="1">
          <mxGeometry width="50" height="50" relative="1" as="geometry">
            <mxPoint x="120" y="11" as="sourcePoint" />
            <mxPoint x="120" y="-30" as="targetPoint" />
          </mxGeometry>
        </mxCell>
        <mxCell id="j8T5LUoiK3F1KZbFksjJ-104" value="" style="endArrow=none;html=1;rounded=0;" parent="1" edge="1">
          <mxGeometry width="50" height="50" relative="1" as="geometry">
            <mxPoint x="110" y="11" as="sourcePoint" />
            <mxPoint x="120.5" y="11" as="targetPoint" />
          </mxGeometry>
        </mxCell>
        <mxCell id="j8T5LUoiK3F1KZbFksjJ-105" value="" style="endArrow=none;html=1;rounded=0;" parent="1" edge="1">
          <mxGeometry width="50" height="50" relative="1" as="geometry">
            <mxPoint x="120" y="-34" as="sourcePoint" />
            <mxPoint x="120" y="-24" as="targetPoint" />
          </mxGeometry>
        </mxCell>
        <mxCell id="j8T5LUoiK3F1KZbFksjJ-106" value="" style="endArrow=none;html=1;rounded=0;" parent="1" edge="1">
          <mxGeometry width="50" height="50" relative="1" as="geometry">
            <mxPoint x="144.5" y="-10" as="sourcePoint" />
            <mxPoint x="155" y="-10" as="targetPoint" />
          </mxGeometry>
        </mxCell>
        <mxCell id="j8T5LUoiK3F1KZbFksjJ-107" value="" style="endArrow=none;html=1;rounded=0;" parent="1" edge="1">
          <mxGeometry width="50" height="50" relative="1" as="geometry">
            <mxPoint x="173" y="-10" as="sourcePoint" />
            <mxPoint x="200" y="-10" as="targetPoint" />
          </mxGeometry>
        </mxCell>
        <mxCell id="FXoRuJh2Zk7MEWJUn5yC-1" value="" style="endArrow=none;html=1;rounded=0;" parent="1" edge="1">
          <mxGeometry width="50" height="50" relative="1" as="geometry">
            <mxPoint x="200" y="-44" as="sourcePoint" />
            <mxPoint x="200" y="-174" as="targetPoint" />
          </mxGeometry>
        </mxCell>
        <mxCell id="FXoRuJh2Zk7MEWJUn5yC-2" value="" style="endArrow=none;html=1;rounded=0;exitX=1.013;exitY=0.614;exitDx=0;exitDy=0;exitPerimeter=0;" parent="1" edge="1">
          <mxGeometry width="50" height="50" relative="1" as="geometry">
            <mxPoint x="174" y="-32.86000000000003" as="sourcePoint" />
            <mxPoint x="199.74" y="-33.14" as="targetPoint" />
          </mxGeometry>
        </mxCell>
        <mxCell id="FXoRuJh2Zk7MEWJUn5yC-3" value="" style="endArrow=none;html=1;rounded=0;exitX=0.982;exitY=0.692;exitDx=0;exitDy=0;exitPerimeter=0;" parent="1" edge="1">
          <mxGeometry width="50" height="50" relative="1" as="geometry">
            <mxPoint x="174.0000000000001" y="-54.079999999999856" as="sourcePoint" />
            <mxPoint x="200.36" y="-53.92" as="targetPoint" />
            <Array as="points">
              <mxPoint x="190.36" y="-53.92" />
            </Array>
          </mxGeometry>
        </mxCell>
        <mxCell id="FXoRuJh2Zk7MEWJUn5yC-4" value="" style="endArrow=none;html=1;rounded=0;exitX=0.971;exitY=0.356;exitDx=0;exitDy=0;exitPerimeter=0;" parent="1" edge="1">
          <mxGeometry width="50" height="50" relative="1" as="geometry">
            <mxPoint x="174.00000000000009" y="-76.94000000000011" as="sourcePoint" />
            <mxPoint x="200.58" y="-77.06" as="targetPoint" />
          </mxGeometry>
        </mxCell>
        <mxCell id="FXoRuJh2Zk7MEWJUn5yC-5" value="" style="endArrow=none;html=1;rounded=0;exitX=0.971;exitY=0.356;exitDx=0;exitDy=0;exitPerimeter=0;" parent="1" edge="1">
          <mxGeometry width="50" height="50" relative="1" as="geometry">
            <mxPoint x="174.00000000000009" y="-98.94000000000011" as="sourcePoint" />
            <mxPoint x="200.58" y="-99.06" as="targetPoint" />
          </mxGeometry>
        </mxCell>
        <mxCell id="FXoRuJh2Zk7MEWJUn5yC-6" value="" style="endArrow=none;html=1;rounded=0;exitX=0.971;exitY=0.356;exitDx=0;exitDy=0;exitPerimeter=0;" parent="1" edge="1">
          <mxGeometry width="50" height="50" relative="1" as="geometry">
            <mxPoint x="174.00000000000009" y="-121.94000000000011" as="sourcePoint" />
            <mxPoint x="200.58" y="-122.06" as="targetPoint" />
          </mxGeometry>
        </mxCell>
        <mxCell id="FXoRuJh2Zk7MEWJUn5yC-7" value="" style="endArrow=none;html=1;rounded=0;exitX=1;exitY=0.5;exitDx=0;exitDy=0;" parent="1" source="j8T5LUoiK3F1KZbFksjJ-88" edge="1">
          <mxGeometry width="50" height="50" relative="1" as="geometry">
            <mxPoint x="180" y="-150" as="sourcePoint" />
            <mxPoint x="200" y="-145" as="targetPoint" />
          </mxGeometry>
        </mxCell>
        <mxCell id="FXoRuJh2Zk7MEWJUn5yC-8" value="" style="endArrow=none;html=1;rounded=0;exitX=0.988;exitY=0.414;exitDx=0;exitDy=0;exitPerimeter=0;" parent="1" source="j8T5LUoiK3F1KZbFksjJ-85" edge="1">
          <mxGeometry width="50" height="50" relative="1" as="geometry">
            <mxPoint x="180" y="-174" as="sourcePoint" />
            <mxPoint x="200" y="-170" as="targetPoint" />
          </mxGeometry>
        </mxCell>
        <mxCell id="FXoRuJh2Zk7MEWJUn5yC-9" value="" style="endArrow=none;html=1;rounded=0;" parent="1" edge="1">
          <mxGeometry width="50" height="50" relative="1" as="geometry">
            <mxPoint x="200" y="-170" as="sourcePoint" />
            <mxPoint x="200" y="-190" as="targetPoint" />
          </mxGeometry>
        </mxCell>
        <mxCell id="FXoRuJh2Zk7MEWJUn5yC-10" value="" style="endArrow=none;html=1;rounded=0;entryX=0.995;entryY=0.605;entryDx=0;entryDy=0;entryPerimeter=0;" parent="1" target="j8T5LUoiK3F1KZbFksjJ-91" edge="1">
          <mxGeometry width="50" height="50" relative="1" as="geometry">
            <mxPoint x="200" y="-190" as="sourcePoint" />
            <mxPoint x="189.91" y="-198" as="targetPoint" />
          </mxGeometry>
        </mxCell>
        <mxCell id="lo0RuE2e4rkKc-c5mWzY-1" value="&lt;p style=&quot;line-height: 0%;&quot;&gt;&lt;font size=&quot;1&quot; color=&quot;#ffffff&quot;&gt;&lt;span style=&quot;background-color: rgb(0, 0, 0); font-size: 5px;&quot;&gt;idempresa&lt;/span&gt;&lt;/font&gt;&lt;/p&gt;" style="ellipse;whiteSpace=wrap;html=1;aspect=fixed;fillColor=#000000;strokeColor=#666666;gradientColor=#030303;strokeWidth=0;" parent="1" vertex="1">
          <mxGeometry x="-80" y="160" width="20" height="20" as="geometry" />
        </mxCell>
        <mxCell id="lo0RuE2e4rkKc-c5mWzY-2" value="" style="endArrow=none;html=1;rounded=0;" parent="1" edge="1">
          <mxGeometry width="50" height="50" relative="1" as="geometry">
            <mxPoint x="-40" y="180" as="sourcePoint" />
            <mxPoint x="-40" y="120" as="targetPoint" />
          </mxGeometry>
        </mxCell>
        <mxCell id="lo0RuE2e4rkKc-c5mWzY-3" value="" style="endArrow=none;html=1;rounded=0;" parent="1" edge="1">
          <mxGeometry width="50" height="50" relative="1" as="geometry">
            <mxPoint x="-60" y="170" as="sourcePoint" />
            <mxPoint x="-40" y="170" as="targetPoint" />
          </mxGeometry>
        </mxCell>
        <mxCell id="lo0RuE2e4rkKc-c5mWzY-12" value="&lt;p style=&quot;text-align: left; line-height: 0%;&quot;&gt;&lt;span style=&quot;background-color: initial;&quot;&gt;&lt;font style=&quot;font-size: 3px;&quot;&gt;tipo_usuario&lt;/font&gt;&lt;/span&gt;&lt;br&gt;&lt;/p&gt;" style="ellipse;whiteSpace=wrap;html=1;aspect=fixed;strokeWidth=1;align=center;strokeColor=default;gradientColor=none;perimeterSpacing=0;" parent="1" vertex="1">
          <mxGeometry x="-78" y="139.5" width="18" height="18" as="geometry" />
        </mxCell>
        <mxCell id="lo0RuE2e4rkKc-c5mWzY-17" value="" style="endArrow=none;html=1;rounded=0;" parent="1" edge="1">
          <mxGeometry width="50" height="50" relative="1" as="geometry">
            <mxPoint x="-60" y="149" as="sourcePoint" />
            <mxPoint x="-40" y="149" as="targetPoint" />
          </mxGeometry>
        </mxCell>
        <mxCell id="lo0RuE2e4rkKc-c5mWzY-19" value="" style="endArrow=none;html=1;rounded=0;" parent="1" edge="1">
          <mxGeometry width="50" height="50" relative="1" as="geometry">
            <mxPoint x="-98" y="148.41" as="sourcePoint" />
            <mxPoint x="-78" y="148.41" as="targetPoint" />
          </mxGeometry>
        </mxCell>
        <mxCell id="lo0RuE2e4rkKc-c5mWzY-20" value="&lt;font style=&quot;font-size: 6px;&quot;&gt;cliente&lt;/font&gt;" style="ellipse;whiteSpace=wrap;html=1;aspect=fixed;" parent="1" vertex="1">
          <mxGeometry x="-138" y="119.5" width="20" height="20" as="geometry" />
        </mxCell>
        <mxCell id="lo0RuE2e4rkKc-c5mWzY-21" value="&lt;font style=&quot;font-size: 6px;&quot;&gt;adm&lt;/font&gt;" style="ellipse;whiteSpace=wrap;html=1;aspect=fixed;" parent="1" vertex="1">
          <mxGeometry x="-138" y="141" width="20" height="20" as="geometry" />
        </mxCell>
        <mxCell id="lo0RuE2e4rkKc-c5mWzY-22" value="&lt;font style=&quot;font-size: 4px;&quot;&gt;empresa&lt;/font&gt;" style="ellipse;whiteSpace=wrap;html=1;aspect=fixed;" parent="1" vertex="1">
          <mxGeometry x="-138" y="162" width="20" height="20" as="geometry" />
        </mxCell>
        <mxCell id="lo0RuE2e4rkKc-c5mWzY-23" value="" style="endArrow=none;html=1;rounded=0;" parent="1" edge="1">
          <mxGeometry width="50" height="50" relative="1" as="geometry">
            <mxPoint x="-98" y="129" as="sourcePoint" />
            <mxPoint x="-98" y="149" as="targetPoint" />
          </mxGeometry>
        </mxCell>
        <mxCell id="lo0RuE2e4rkKc-c5mWzY-24" value="" style="endArrow=none;html=1;rounded=0;" parent="1" edge="1">
          <mxGeometry width="50" height="50" relative="1" as="geometry">
            <mxPoint x="-118" y="130" as="sourcePoint" />
            <mxPoint x="-98" y="130" as="targetPoint" />
          </mxGeometry>
        </mxCell>
        <mxCell id="lo0RuE2e4rkKc-c5mWzY-25" value="" style="endArrow=none;html=1;rounded=0;" parent="1" edge="1">
          <mxGeometry width="50" height="50" relative="1" as="geometry">
            <mxPoint x="-118" y="148.4" as="sourcePoint" />
            <mxPoint x="-98" y="148.4" as="targetPoint" />
          </mxGeometry>
        </mxCell>
        <mxCell id="lo0RuE2e4rkKc-c5mWzY-26" value="" style="endArrow=none;html=1;rounded=0;" parent="1" edge="1">
          <mxGeometry width="50" height="50" relative="1" as="geometry">
            <mxPoint x="-98" y="170" as="sourcePoint" />
            <mxPoint x="-98" y="149" as="targetPoint" />
          </mxGeometry>
        </mxCell>
        <mxCell id="lo0RuE2e4rkKc-c5mWzY-27" value="" style="endArrow=none;html=1;rounded=0;" parent="1" edge="1">
          <mxGeometry width="50" height="50" relative="1" as="geometry">
            <mxPoint x="-118" y="170" as="sourcePoint" />
            <mxPoint x="-98" y="170" as="targetPoint" />
          </mxGeometry>
        </mxCell>
        <mxCell id="lo0RuE2e4rkKc-c5mWzY-29" value="&lt;p style=&quot;text-align: left; line-height: 0%;&quot;&gt;&lt;span style=&quot;font-size: 3px;&quot;&gt;razao_social&lt;/span&gt;&lt;/p&gt;" style="ellipse;whiteSpace=wrap;html=1;aspect=fixed;strokeWidth=1;align=center;strokeColor=default;gradientColor=none;perimeterSpacing=0;" parent="1" vertex="1">
          <mxGeometry x="-78" y="119.5" width="18" height="18" as="geometry" />
        </mxCell>
        <mxCell id="lo0RuE2e4rkKc-c5mWzY-30" value="" style="endArrow=none;html=1;rounded=0;" parent="1" edge="1">
          <mxGeometry width="50" height="50" relative="1" as="geometry">
            <mxPoint x="-60" y="129" as="sourcePoint" />
            <mxPoint x="-40" y="129" as="targetPoint" />
          </mxGeometry>
        </mxCell>
        <mxCell id="lo0RuE2e4rkKc-c5mWzY-31" value="&lt;p style=&quot;text-align: left; line-height: 0%;&quot;&gt;&lt;font style=&quot;font-size: 8px;&quot;&gt;cnpj&lt;/font&gt;&lt;/p&gt;" style="ellipse;whiteSpace=wrap;html=1;aspect=fixed;strokeWidth=1;align=center;strokeColor=default;gradientColor=none;perimeterSpacing=0;" parent="1" vertex="1">
          <mxGeometry x="-78" y="100" width="18" height="18" as="geometry" />
        </mxCell>
        <mxCell id="lo0RuE2e4rkKc-c5mWzY-32" value="" style="endArrow=none;html=1;rounded=0;" parent="1" edge="1">
          <mxGeometry width="50" height="50" relative="1" as="geometry">
            <mxPoint x="-60" y="108.91" as="sourcePoint" />
            <mxPoint x="-40" y="108.91" as="targetPoint" />
          </mxGeometry>
        </mxCell>
        <mxCell id="lo0RuE2e4rkKc-c5mWzY-33" value="" style="endArrow=none;html=1;rounded=0;" parent="1" edge="1">
          <mxGeometry width="50" height="50" relative="1" as="geometry">
            <mxPoint x="-40" y="120.5" as="sourcePoint" />
            <mxPoint x="-40" y="60.5" as="targetPoint" />
          </mxGeometry>
        </mxCell>
        <mxCell id="lo0RuE2e4rkKc-c5mWzY-34" value="&lt;p style=&quot;text-align: left; line-height: 0%;&quot;&gt;&lt;span style=&quot;font-size: 6px;&quot;&gt;senha&lt;/span&gt;&lt;/p&gt;" style="ellipse;whiteSpace=wrap;html=1;aspect=fixed;strokeWidth=1;align=center;strokeColor=default;gradientColor=none;perimeterSpacing=0;" parent="1" vertex="1">
          <mxGeometry x="-78" y="80" width="18" height="18" as="geometry" />
        </mxCell>
        <mxCell id="lo0RuE2e4rkKc-c5mWzY-35" value="&lt;p style=&quot;text-align: left; line-height: 0%;&quot;&gt;&lt;span style=&quot;font-size: 6px;&quot;&gt;email&lt;/span&gt;&lt;/p&gt;" style="ellipse;whiteSpace=wrap;html=1;aspect=fixed;strokeWidth=1;align=center;strokeColor=default;gradientColor=none;perimeterSpacing=0;" parent="1" vertex="1">
          <mxGeometry x="-78" y="60" width="18" height="18" as="geometry" />
        </mxCell>
        <mxCell id="lo0RuE2e4rkKc-c5mWzY-36" value="&lt;p style=&quot;text-align: left; line-height: 0%;&quot;&gt;&lt;span style=&quot;font-size: 6px;&quot;&gt;fone&lt;/span&gt;&lt;/p&gt;" style="ellipse;whiteSpace=wrap;html=1;aspect=fixed;strokeWidth=1;align=center;strokeColor=default;gradientColor=none;perimeterSpacing=0;" parent="1" vertex="1">
          <mxGeometry x="-78" y="40" width="18" height="18" as="geometry" />
        </mxCell>
        <mxCell id="lo0RuE2e4rkKc-c5mWzY-37" value="&lt;p style=&quot;text-align: left; line-height: 0%;&quot;&gt;&lt;span style=&quot;font-size: 4px;&quot;&gt;endereco&lt;/span&gt;&lt;/p&gt;" style="ellipse;whiteSpace=wrap;html=1;aspect=fixed;strokeWidth=1;align=center;strokeColor=default;gradientColor=none;perimeterSpacing=0;" parent="1" vertex="1">
          <mxGeometry x="-78" y="21" width="18" height="18" as="geometry" />
        </mxCell>
        <mxCell id="lo0RuE2e4rkKc-c5mWzY-38" value="" style="endArrow=none;html=1;rounded=0;" parent="1" edge="1">
          <mxGeometry width="50" height="50" relative="1" as="geometry">
            <mxPoint x="-60" y="88.86" as="sourcePoint" />
            <mxPoint x="-40" y="88.86" as="targetPoint" />
          </mxGeometry>
        </mxCell>
        <mxCell id="lo0RuE2e4rkKc-c5mWzY-39" value="" style="endArrow=none;html=1;rounded=0;" parent="1" edge="1">
          <mxGeometry width="50" height="50" relative="1" as="geometry">
            <mxPoint x="-60" y="68.86" as="sourcePoint" />
            <mxPoint x="-40" y="68.86" as="targetPoint" />
          </mxGeometry>
        </mxCell>
        <mxCell id="lo0RuE2e4rkKc-c5mWzY-40" value="" style="endArrow=none;html=1;rounded=0;" parent="1" edge="1">
          <mxGeometry width="50" height="50" relative="1" as="geometry">
            <mxPoint x="-60" y="48.86" as="sourcePoint" />
            <mxPoint x="-40" y="48.86" as="targetPoint" />
          </mxGeometry>
        </mxCell>
        <mxCell id="lo0RuE2e4rkKc-c5mWzY-41" value="" style="endArrow=none;html=1;rounded=0;" parent="1" edge="1">
          <mxGeometry width="50" height="50" relative="1" as="geometry">
            <mxPoint x="-60" y="29.86" as="sourcePoint" />
            <mxPoint x="-40" y="29.86" as="targetPoint" />
          </mxGeometry>
        </mxCell>
        <mxCell id="lo0RuE2e4rkKc-c5mWzY-42" value="" style="endArrow=none;html=1;rounded=0;" parent="1" edge="1">
          <mxGeometry width="50" height="50" relative="1" as="geometry">
            <mxPoint x="-40" y="30" as="sourcePoint" />
            <mxPoint x="-40" y="70" as="targetPoint" />
          </mxGeometry>
        </mxCell>
        <mxCell id="lo0RuE2e4rkKc-c5mWzY-43" value="&lt;p style=&quot;text-align: left; line-height: 0%;&quot;&gt;&lt;span style=&quot;font-size: 5px;&quot;&gt;cidade&lt;/span&gt;&lt;/p&gt;" style="ellipse;whiteSpace=wrap;html=1;aspect=fixed;strokeWidth=1;align=center;strokeColor=default;gradientColor=none;perimeterSpacing=0;" parent="1" vertex="1">
          <mxGeometry x="-80" y="182" width="18" height="18" as="geometry" />
        </mxCell>
        <mxCell id="lo0RuE2e4rkKc-c5mWzY-44" value="&lt;p style=&quot;text-align: left; line-height: 0%;&quot;&gt;&lt;span style=&quot;font-size: 5px;&quot;&gt;estado&lt;/span&gt;&lt;/p&gt;" style="ellipse;whiteSpace=wrap;html=1;aspect=fixed;strokeWidth=1;align=center;strokeColor=default;gradientColor=none;perimeterSpacing=0;" parent="1" vertex="1">
          <mxGeometry x="-80" y="204" width="18" height="18" as="geometry" />
        </mxCell>
        <mxCell id="lo0RuE2e4rkKc-c5mWzY-45" value="" style="endArrow=none;html=1;rounded=0;entryX=-0.003;entryY=0.217;entryDx=0;entryDy=0;entryPerimeter=0;" parent="1" target="j8T5LUoiK3F1KZbFksjJ-16" edge="1">
          <mxGeometry width="50" height="50" relative="1" as="geometry">
            <mxPoint x="-62" y="190.86" as="sourcePoint" />
            <mxPoint x="-42" y="190.86" as="targetPoint" />
          </mxGeometry>
        </mxCell>
        <mxCell id="lo0RuE2e4rkKc-c5mWzY-46" value="" style="endArrow=none;html=1;rounded=0;entryX=-0.003;entryY=0.217;entryDx=0;entryDy=0;entryPerimeter=0;" parent="1" edge="1">
          <mxGeometry width="50" height="50" relative="1" as="geometry">
            <mxPoint x="-62" y="212.92000000000002" as="sourcePoint" />
            <mxPoint x="-40" y="213.06" as="targetPoint" />
          </mxGeometry>
        </mxCell>
        <mxCell id="lo0RuE2e4rkKc-c5mWzY-47" value="&lt;p style=&quot;line-height: 0%;&quot;&gt;&lt;font color=&quot;#ffffff&quot;&gt;&lt;span style=&quot;font-size: 5px; background-color: rgb(0, 0, 0);&quot;&gt;idcidade&lt;/span&gt;&lt;/font&gt;&lt;/p&gt;" style="ellipse;whiteSpace=wrap;html=1;aspect=fixed;fillColor=#000000;strokeColor=#666666;gradientColor=#030303;strokeWidth=0;" parent="1" vertex="1">
          <mxGeometry x="440" y="-63" width="20" height="20" as="geometry" />
        </mxCell>
        <mxCell id="lo0RuE2e4rkKc-c5mWzY-48" value="&lt;font style=&quot;font-size: 3px;&quot;&gt;Nomecidade&lt;/font&gt;" style="ellipse;whiteSpace=wrap;html=1;aspect=fixed;" parent="1" vertex="1">
          <mxGeometry x="470" y="-62" width="20" height="20" as="geometry" />
        </mxCell>
        <mxCell id="lo0RuE2e4rkKc-c5mWzY-49" value="" style="endArrow=none;html=1;rounded=0;entryX=0.5;entryY=1;entryDx=0;entryDy=0;" parent="1" target="lo0RuE2e4rkKc-c5mWzY-47" edge="1">
          <mxGeometry width="50" height="50" relative="1" as="geometry">
            <mxPoint x="450" y="-20" as="sourcePoint" />
            <mxPoint x="480" y="-50" as="targetPoint" />
          </mxGeometry>
        </mxCell>
        <mxCell id="lo0RuE2e4rkKc-c5mWzY-50" value="" style="endArrow=none;html=1;rounded=0;entryX=0.5;entryY=1;entryDx=0;entryDy=0;" parent="1" edge="1">
          <mxGeometry width="50" height="50" relative="1" as="geometry">
            <mxPoint x="479.89" y="-19" as="sourcePoint" />
            <mxPoint x="479.89" y="-42" as="targetPoint" />
          </mxGeometry>
        </mxCell>
        <mxCell id="lo0RuE2e4rkKc-c5mWzY-51" value="&lt;p style=&quot;line-height: 0%;&quot;&gt;&lt;font color=&quot;#ffffff&quot;&gt;&lt;span style=&quot;font-size: 5px; background-color: rgb(0, 0, 0);&quot;&gt;idcidade&lt;/span&gt;&lt;/font&gt;&lt;/p&gt;" style="ellipse;whiteSpace=wrap;html=1;aspect=fixed;fillColor=#000000;strokeColor=#666666;gradientColor=#030303;strokeWidth=0;" parent="1" vertex="1">
          <mxGeometry x="560" y="78" width="20" height="20" as="geometry" />
        </mxCell>
        <mxCell id="lo0RuE2e4rkKc-c5mWzY-52" value="&lt;font style=&quot;font-size: 3px;&quot;&gt;Nomecidade&lt;/font&gt;" style="ellipse;whiteSpace=wrap;html=1;aspect=fixed;" parent="1" vertex="1">
          <mxGeometry x="560" y="102.5" width="20" height="20" as="geometry" />
        </mxCell>
        <mxCell id="lo0RuE2e4rkKc-c5mWzY-53" value="" style="endArrow=none;html=1;rounded=0;entryX=-0.013;entryY=0.546;entryDx=0;entryDy=0;exitX=1.001;exitY=0.184;exitDx=0;exitDy=0;exitPerimeter=0;entryPerimeter=0;" parent="1" source="j8T5LUoiK3F1KZbFksjJ-37" target="lo0RuE2e4rkKc-c5mWzY-51" edge="1">
          <mxGeometry width="50" height="50" relative="1" as="geometry">
            <mxPoint x="550" y="103" as="sourcePoint" />
            <mxPoint x="550" y="80" as="targetPoint" />
          </mxGeometry>
        </mxCell>
        <mxCell id="lo0RuE2e4rkKc-c5mWzY-54" value="" style="endArrow=none;html=1;rounded=0;entryX=0;entryY=0.5;entryDx=0;entryDy=0;exitX=1.004;exitY=0.672;exitDx=0;exitDy=0;exitPerimeter=0;" parent="1" source="j8T5LUoiK3F1KZbFksjJ-37" target="lo0RuE2e4rkKc-c5mWzY-52" edge="1">
          <mxGeometry width="50" height="50" relative="1" as="geometry">
            <mxPoint x="550" y="129.5" as="sourcePoint" />
            <mxPoint x="550" y="106.5" as="targetPoint" />
          </mxGeometry>
        </mxCell>
        <mxCell id="M62YJvhZ7LX8S-KHC2DO-2" value="&lt;font style=&quot;font-size: 4px;&quot;&gt;Qatd_volts&lt;/font&gt;" style="ellipse;whiteSpace=wrap;html=1;aspect=fixed;" vertex="1" parent="1">
          <mxGeometry x="950" y="122.5" width="20" height="20" as="geometry" />
        </mxCell>
        <mxCell id="M62YJvhZ7LX8S-KHC2DO-3" value="&lt;p style=&quot;line-height: 0%;&quot;&gt;&lt;font color=&quot;#ffffff&quot;&gt;&lt;span style=&quot;font-size: 5px; background-color: rgb(0, 0, 0);&quot;&gt;id_volts&lt;/span&gt;&lt;/font&gt;&lt;/p&gt;" style="ellipse;whiteSpace=wrap;html=1;aspect=fixed;fillColor=#000000;strokeColor=#666666;gradientColor=#030303;strokeWidth=0;" vertex="1" parent="1">
          <mxGeometry x="950" y="95" width="20" height="20" as="geometry" />
        </mxCell>
        <mxCell id="M62YJvhZ7LX8S-KHC2DO-4" value="" style="endArrow=none;html=1;rounded=0;entryX=0;entryY=0.5;entryDx=0;entryDy=0;exitX=0.999;exitY=0.101;exitDx=0;exitDy=0;exitPerimeter=0;" edge="1" parent="1" source="j8T5LUoiK3F1KZbFksjJ-64" target="M62YJvhZ7LX8S-KHC2DO-3">
          <mxGeometry width="50" height="50" relative="1" as="geometry">
            <mxPoint x="930" y="160" as="sourcePoint" />
            <mxPoint x="980" y="110" as="targetPoint" />
          </mxGeometry>
        </mxCell>
        <mxCell id="M62YJvhZ7LX8S-KHC2DO-6" value="" style="endArrow=none;html=1;rounded=0;entryX=0;entryY=0.5;entryDx=0;entryDy=0;exitX=0.999;exitY=0.101;exitDx=0;exitDy=0;exitPerimeter=0;" edge="1" parent="1">
          <mxGeometry width="50" height="50" relative="1" as="geometry">
            <mxPoint x="940" y="132.38" as="sourcePoint" />
            <mxPoint x="950" y="132.38" as="targetPoint" />
          </mxGeometry>
        </mxCell>
        <mxCell id="M62YJvhZ7LX8S-KHC2DO-7" value="&lt;p style=&quot;line-height: 0%;&quot;&gt;&lt;font color=&quot;#ffffff&quot;&gt;&lt;span style=&quot;font-size: 5px; background-color: rgb(0, 0, 0);&quot;&gt;id_automovel&lt;/span&gt;&lt;/font&gt;&lt;/p&gt;" style="ellipse;whiteSpace=wrap;html=1;aspect=fixed;fillColor=#000000;strokeColor=#666666;gradientColor=#030303;strokeWidth=0;" vertex="1" parent="1">
          <mxGeometry x="960" y="170" width="20" height="20" as="geometry" />
        </mxCell>
        <mxCell id="M62YJvhZ7LX8S-KHC2DO-8" value="&lt;font style=&quot;font-size: 4px;&quot;&gt;nomeTipo&lt;/font&gt;" style="ellipse;whiteSpace=wrap;html=1;aspect=fixed;" vertex="1" parent="1">
          <mxGeometry x="960" y="195" width="20" height="20" as="geometry" />
        </mxCell>
        <mxCell id="M62YJvhZ7LX8S-KHC2DO-9" value="&lt;span style=&quot;font-size: 4px;&quot;&gt;TipoProduto&lt;/span&gt;" style="ellipse;whiteSpace=wrap;html=1;aspect=fixed;" vertex="1" parent="1">
          <mxGeometry x="960" y="217" width="20" height="20" as="geometry" />
        </mxCell>
        <mxCell id="M62YJvhZ7LX8S-KHC2DO-10" value="" style="endArrow=none;html=1;rounded=0;entryX=0;entryY=0.5;entryDx=0;entryDy=0;" edge="1" parent="1" target="M62YJvhZ7LX8S-KHC2DO-8">
          <mxGeometry width="50" height="50" relative="1" as="geometry">
            <mxPoint x="940" y="205" as="sourcePoint" />
            <mxPoint x="960" y="204.34000000000015" as="targetPoint" />
          </mxGeometry>
        </mxCell>
        <mxCell id="M62YJvhZ7LX8S-KHC2DO-11" value="" style="endArrow=none;html=1;rounded=0;" edge="1" parent="1">
          <mxGeometry width="50" height="50" relative="1" as="geometry">
            <mxPoint x="950" y="230" as="sourcePoint" />
            <mxPoint x="950" y="180" as="targetPoint" />
          </mxGeometry>
        </mxCell>
        <mxCell id="M62YJvhZ7LX8S-KHC2DO-13" value="" style="endArrow=none;html=1;rounded=0;" edge="1" parent="1" target="M62YJvhZ7LX8S-KHC2DO-7">
          <mxGeometry width="50" height="50" relative="1" as="geometry">
            <mxPoint x="950" y="180" as="sourcePoint" />
            <mxPoint x="962.1799999999998" y="180.53999999999996" as="targetPoint" />
          </mxGeometry>
        </mxCell>
        <mxCell id="M62YJvhZ7LX8S-KHC2DO-14" value="" style="endArrow=none;html=1;rounded=0;" edge="1" parent="1">
          <mxGeometry width="50" height="50" relative="1" as="geometry">
            <mxPoint x="950" y="230" as="sourcePoint" />
            <mxPoint x="960" y="230" as="targetPoint" />
          </mxGeometry>
        </mxCell>
        <mxCell id="M62YJvhZ7LX8S-KHC2DO-15" value="" style="endArrow=none;html=1;rounded=0;" edge="1" parent="1">
          <mxGeometry width="50" height="50" relative="1" as="geometry">
            <mxPoint x="980" y="204.86" as="sourcePoint" />
            <mxPoint x="1000" y="205" as="targetPoint" />
          </mxGeometry>
        </mxCell>
        <mxCell id="M62YJvhZ7LX8S-KHC2DO-16" value="" style="endArrow=none;html=1;rounded=0;" edge="1" parent="1">
          <mxGeometry width="50" height="50" relative="1" as="geometry">
            <mxPoint x="1000" y="250" as="sourcePoint" />
            <mxPoint x="1000" y="166" as="targetPoint" />
          </mxGeometry>
        </mxCell>
        <mxCell id="M62YJvhZ7LX8S-KHC2DO-17" value="" style="endArrow=none;html=1;rounded=0;" edge="1" parent="1">
          <mxGeometry width="50" height="50" relative="1" as="geometry">
            <mxPoint x="1000" y="166.4" as="sourcePoint" />
            <mxPoint x="1010" y="166.4" as="targetPoint" />
          </mxGeometry>
        </mxCell>
        <mxCell id="M62YJvhZ7LX8S-KHC2DO-19" value="&lt;font style=&quot;font-size: 4px;&quot;&gt;nomeTipo&lt;/font&gt;" style="ellipse;whiteSpace=wrap;html=1;aspect=fixed;" vertex="1" parent="1">
          <mxGeometry x="1010" y="156.5" width="20" height="20" as="geometry" />
        </mxCell>
        <mxCell id="M62YJvhZ7LX8S-KHC2DO-20" value="&lt;font style=&quot;font-size: 4px;&quot;&gt;nomeTipo&lt;/font&gt;" style="ellipse;whiteSpace=wrap;html=1;aspect=fixed;" vertex="1" parent="1">
          <mxGeometry x="1010" y="178.5" width="20" height="20" as="geometry" />
        </mxCell>
        <mxCell id="M62YJvhZ7LX8S-KHC2DO-21" value="&lt;font style=&quot;font-size: 4px;&quot;&gt;nomeTipo&lt;/font&gt;" style="ellipse;whiteSpace=wrap;html=1;aspect=fixed;" vertex="1" parent="1">
          <mxGeometry x="1010" y="222" width="20" height="20" as="geometry" />
        </mxCell>
        <mxCell id="M62YJvhZ7LX8S-KHC2DO-22" value="&lt;font style=&quot;font-size: 4px;&quot;&gt;nomeTipo&lt;/font&gt;" style="ellipse;whiteSpace=wrap;html=1;aspect=fixed;" vertex="1" parent="1">
          <mxGeometry x="1010" y="244" width="20" height="20" as="geometry" />
        </mxCell>
        <mxCell id="M62YJvhZ7LX8S-KHC2DO-23" value="&lt;font style=&quot;font-size: 4px;&quot;&gt;nomeTipo&lt;/font&gt;" style="ellipse;whiteSpace=wrap;html=1;aspect=fixed;" vertex="1" parent="1">
          <mxGeometry x="1010" y="200" width="20" height="20" as="geometry" />
        </mxCell>
        <mxCell id="M62YJvhZ7LX8S-KHC2DO-24" value="" style="endArrow=none;html=1;rounded=0;" edge="1" parent="1">
          <mxGeometry width="50" height="50" relative="1" as="geometry">
            <mxPoint x="1000" y="188.4" as="sourcePoint" />
            <mxPoint x="1010" y="188.4" as="targetPoint" />
          </mxGeometry>
        </mxCell>
        <mxCell id="M62YJvhZ7LX8S-KHC2DO-25" value="" style="endArrow=none;html=1;rounded=0;" edge="1" parent="1">
          <mxGeometry width="50" height="50" relative="1" as="geometry">
            <mxPoint x="1000" y="209.9" as="sourcePoint" />
            <mxPoint x="1010" y="209.9" as="targetPoint" />
          </mxGeometry>
        </mxCell>
        <mxCell id="M62YJvhZ7LX8S-KHC2DO-26" value="" style="endArrow=none;html=1;rounded=0;" edge="1" parent="1">
          <mxGeometry width="50" height="50" relative="1" as="geometry">
            <mxPoint x="1000" y="231.9" as="sourcePoint" />
            <mxPoint x="1010" y="231.9" as="targetPoint" />
          </mxGeometry>
        </mxCell>
        <mxCell id="M62YJvhZ7LX8S-KHC2DO-27" value="" style="endArrow=none;html=1;rounded=0;" edge="1" parent="1">
          <mxGeometry width="50" height="50" relative="1" as="geometry">
            <mxPoint x="1000" y="253.9" as="sourcePoint" />
            <mxPoint x="1010" y="253.9" as="targetPoint" />
          </mxGeometry>
        </mxCell>
        <mxCell id="M62YJvhZ7LX8S-KHC2DO-28" value="" style="endArrow=none;html=1;rounded=0;" edge="1" parent="1">
          <mxGeometry width="50" height="50" relative="1" as="geometry">
            <mxPoint x="1000" y="260" as="sourcePoint" />
            <mxPoint x="1000" y="220" as="targetPoint" />
          </mxGeometry>
        </mxCell>
      </root>
    </mxGraphModel>
  </diagram>
</mxfile>
